<svg version="1.2" xmlns="http://www.w3.org/2000/svg" viewBox="0 0 400 112" width="400" height="112">
	<title>New Project</title>
	<style>
		.s0 { fill: #000000 } 
	</style>
	<path id="NodeKit" class="s0" aria-label="NodeKit"  d="m76.5 23.4h-14.3v42.5h-0.6l-29.2-42.5h-12.5v67.6h14.3v-42.6h0.5l29.4 42.6h12.4zm34.4 68.6c15.4 0 25-10.5 25-26.1 0-15.7-9.6-26.3-25-26.3-15.4 0-25 10.6-25 26.3 0 15.6 9.6 26.1 25 26.1zm0.1-10.9c-7.1 0-10.8-6.5-10.8-15.3 0-8.9 3.7-15.4 10.8-15.4 6.9 0 10.6 6.5 10.6 15.4 0 8.8-3.7 15.3-10.6 15.3zm52.7 10.8c8.2 0 12.5-4.8 14.4-9h0.6v8.1h13.9v-67.6h-14v25.4h-0.5c-1.8-4.1-5.9-9.2-14.4-9.2-11.1 0-20.5 8.7-20.5 26.1 0 17 9 26.2 20.5 26.2zm4.5-11.2c-6.9 0-10.7-6.2-10.7-15 0-8.8 3.7-14.9 10.7-14.9 6.8 0 10.7 5.8 10.7 14.9 0 9-3.9 15-10.7 15zm59 11.3c12.6 0 21.1-6.1 23-15.5l-13-0.9c-1.4 3.9-5 5.9-9.7 5.9-7.1 0-11.5-4.6-11.5-12.2h34.5v-3.9c0-17.2-10.4-25.8-23.8-25.8-14.9 0-24.6 10.6-24.6 26.3 0 16.1 9.5 26.1 25.1 26.1zm-11.2-31.4c0.3-5.8 4.7-10.4 10.9-10.4 6.1 0 10.4 4.3 10.4 10.4zm44 30.4h14.3v-19.2l7-8.6 18.5 27.8h17.1l-25.4-37.3 25.1-30.3h-17.1l-24.3 29.8h-0.9v-29.8h-14.3zm67 0h14.1v-50.7h-14.1zm7.1-57.3c4.2 0 7.6-3.2 7.6-7.1 0-3.9-3.4-7.1-7.6-7.1-4.2 0-7.6 3.2-7.6 7.1 0 3.9 3.4 7.1 7.6 7.1zm45.2 6.5h-9.5v-12.1h-14.1v12.1h-7v10.6h7v26.4c-0.1 10 6.7 14.9 16.9 14.5 3.6-0.2 6.2-0.9 7.6-1.4l-2.2-10.4c-0.7 0.1-2.2 0.4-3.5 0.4-2.8 0-4.7-1-4.7-4.9v-24.6h9.5z"/>
</svg>